<svg viewBox="0 0 24 24" xmlns="http://www.w3.org/2000/svg" xml:space="preserve" style="fill-rule:evenodd;clip-rule:evenodd;stroke-linejoin:round;stroke-miterlimit:2">
    <path d="M17.016 4.017c-.418-1.71.65-3.442 2.381-3.866 1.733-.423 3.48.621 3.898 2.33.418 1.71-.649 3.442-2.382 3.866a3.258 3.258 0 0 1-1.53.006l-2.817 11.325c1.15.26 2.104 1.123 2.396 2.317.415 1.698-.666 3.424-2.412 3.851-1.747.427-3.502-.604-3.918-2.302-.292-1.195.156-2.402 1.056-3.162L5.962 9.636a3.256 3.256 0 0 1-1.36.7c-1.733.424-3.479-.62-3.897-2.329-.418-1.71.65-3.442 2.381-3.866 1.733-.424 3.48.62 3.898 2.33l10.032-2.454Zm.498 1.085c.218.306.49.568.795.777l-2.922 11.75a3.429 3.429 0 0 0-.7.173l-8.004-9.06c.182-.333.306-.698.36-1.079l10.471-2.56Z"/>
</svg>
